<?xml version="1.0" encoding="utf-8"?>
<!-- Generator: Adobe Illustrator 24.0.1, SVG Export Plug-In . SVG Version: 6.00 Build 0)  -->
<svg version="1.1" id="Layer_1" xmlns="http://www.w3.org/2000/svg" xmlns:xlink="http://www.w3.org/1999/xlink" x="0px" y="0px"
	 viewBox="0 0 612 792" style="enable-background:new 0 0 612 792;" xml:space="preserve">
<style type="text/css">
	.st0{fill:#343233;}
	.st1{fill:#4B4B4A;}
	.st2{fill:#5C5C5C;}
	.st3{fill:#E92025;}
</style>
<g>
	<path class="st0" d="M33.86,1052.76c-2.98,0.19-5.96,0.54-8.94,0.54c-80,0.03-160-0.05-240,0.06c-28.51,0.04-54.79-7.48-78.1-23.72
		c-41.87-29.17-64.56-69.46-65.13-120.69c-0.73-65.66-0.16-131.33-0.16-197c0-74.67-0.02-149.33,0.01-224
		c0-5.32,0.33-10.64,0.51-15.96c1.66-1.41,4.11-2.49,4.85-4.28c7.39-17.83,16.91-34.56,25.86-51.61
		c13.72-26.14,32.15-48.82,51.34-70.8c14.85-17.01,31.48-32.45,49.76-45.96c35.68-26.39,74.79-45.89,117.8-56.69
		c19.51-4.9,39.58-8.51,59.61-10.16c17.08-1.41,34.48,0.7,51.72,1.48c27.72,1.26,54.37,8.21,80.66,16.31
		c51.19,15.77,98.9,38.91,143.23,69.03c3.18,2.16,7.08,3.24,10.65,4.83c1.19,4.55,5.46,4.59,8.75,5.45
		c6.06,1.59,12.26,2.92,18.49,3.6c15.11,1.65,30.34,4.47,45.4,3.85c18.09-0.74,36.5-0.32,54.27-5.13
		c7.45-2.02,16.24-0.37,21.78-7.77c10.71-6.55,21.36-13.19,32.15-19.62c21.99-13.1,44.27-25.68,67.94-35.57
		c46.19-19.3,94.12-32.19,143.98-36.62c26.16-2.33,52.56-0.57,78.33,4.53c18.14,3.59,35.97,9.24,53.55,15.11
		c22.76,7.6,44.28,18.35,64.07,31.81c28.28,19.22,55.31,40.27,77.18,66.89c12.4,15.09,24.59,30.55,35.04,47
		c13.51,21.27,25.87,43.34,35.52,66.77c0.61,1.48,2.66,2.38,4.04,3.55c0.3,5.98,0.87,11.96,0.87,17.94
		c0.11,138.98-0.07,277.97,0.38,416.95c0.12,37.18-9.83,70.43-33.88,98.84c-29.29,34.6-67.02,51.6-112.34,51.62
		c-67.99,0.03-135.99,0.01-203.98-0.06c-13.64-0.01-27.28-0.35-40.92-0.53c-0.88-2.09-1.43-4.4-2.69-6.23
		c-8.29-11.99-16.85-23.8-25.1-35.82c-17.81-25.99-35.45-52.09-53.26-78.08c-2.29-3.34-5.18-6.27-9.13-10.98
		c0,17.9,0.33,33.5-0.12,49.09c-0.29,10.15-1.7,20.26-2.63,30.55c-12.59,0-24.37,0-37.24,0c0-4.34,0-7.92,0-11.51
		c0-39.99,0.04-79.97-0.09-119.96c-0.01-3.52-0.17-7.69-1.98-10.43c-11.35-17.17-23.15-34.04-34.92-50.93
		c-0.93-1.33-2.75-2.04-5.08-3.7c0,64.96,0,128.59-0.02,192.22c0,0.98-0.31,1.96-0.55,2.93c-0.07,0.29-0.39,0.51-0.61,0.76
		c-0.22,0.25-0.45,0.49-1.27,1.36c-5.74,0-12.05,0.06-18.36-0.02c-6.16-0.07-12.31-0.29-19.12-0.45c0-5.39,0-9.35,0-13.32
		c0-75.97,0-151.95-0.02-227.92c0-3,0.22-6.04-0.19-8.98c-0.93-6.65-3.78-9.15-10.57-9.28c-7.99-0.16-15.99-0.13-23.99,0
		c-2.19,0.04-4.38,0.73-7.26,1.24c0,12.78,0,25.07,0,37.35c0,12.33-0.01,24.66-0.01,36.99s0,24.66,0,36.99c0,12,0,23.99,0,35.99
		c0,12.33,0,24.66,0,36.99c0,12.33,0.07,24.66-0.02,36.99c-0.08,12.19,0.4,24.4-0.32,36.65c-13.09,0-24.87,0-37.87,0
		c0-86.56,0-172.33,0-258.52c-15.01,0-28.78,0-43.79,0c0,86.47,0,172.24,0,257.73c-11.32,2.46-32.38,2.11-39.94-0.61
		c0-33.71,0-67.67,0-101.64c0-34.13,0-68.27,0-102.4c-2.63,0.73-3.62,1.86-4.46,3.09c-10.53,15.33-20.7,30.93-31.73,45.89
		c-4.03,5.47-5.89,10.72-5.87,17.37c0.15,42.65,0.06,85.3,0.05,127.95c0,3.55,0,7.11,0,10.37c-11.52,2.43-30.49,2.08-38.06-0.64
		c0-9.38,0-19.02,0-28.66c0-10,0.1-19.99-0.01-29.99c-0.1-9.4,0.58-18.87-1.37-28.33c-6.81,8.24-12.65,16.57-18.41,24.96
		c-10.86,15.84-21.31,31.98-32.61,47.49C63.54,1007.27,47.34,1029.09,33.86,1052.76z M244.37,404.76c-4.29-3.17-7.04-5.55-10.1-7.41
		c-22.49-13.63-45.17-26.77-69.13-37.88c-43.77-20.31-88.76-35.65-136.8-42.06c-25.94-3.46-51.73-4.24-77.6-0.96
		c-10.2,1.29-20.3,3.64-30.31,6.05c-7.15,1.72-9.19,4.03-7.9,10.41c2.82,13.97,4.65,28.58,10.29,41.45
		c15.29,34.92,41.85,59.89,75.84,76.4c36.03,17.51,74.51,21.72,113.96,16.76c44.4-5.58,83.78-23.11,118.33-51.52
		C235.01,412.66,239.02,409.24,244.37,404.76z M376.38,404.55c3.38,3.27,5.25,5.56,7.58,7.23c7.82,5.64,15.75,11.15,23.74,16.55
		c45.42,30.75,95.35,44.54,150.2,39.79c32.8-2.84,63.09-12.51,89.94-32.09c33.9-24.72,55.3-56.95,60.41-99.18
		c1.25-10.33,0.67-12.46-9.57-14.62c-15.57-3.29-31.31-6.52-47.13-7.67c-31.4-2.28-62.39,2.08-93,9
		c-54.73,12.38-105.35,34.8-153.48,63.23C395.96,392.19,387.07,397.93,376.38,404.55z M213.69,608.93
		c15.59-20.82,19.39-34.2,18.43-53.78c-0.28-5.75-2.22-9.51-7.39-11.72c-2.74-1.17-5.5-2.33-8.22-3.55
		c-16.07-7.18-33.44-9.07-50.49-9.46c-28.53-0.65-57.14,0.46-85.66,1.88c-17.79,0.89-35.45,4.14-53.23,5.52
		c-16.52,1.28-33.13,1.96-49.7,2.03c-13.9,0.05-27.81-1.64-41.72-1.7c-20.98-0.1-41.51-3.43-62.03-7.2
		c-5.3-0.97-10.66-1.64-15.99-2.45c40.77,33.9,61.79,79.9,80.87,128.17c5.69-2.89,10.49-5.05,15.03-7.68
		c18.11-10.47,37.15-19.03,56.8-25.98c17.46-6.18,35.2-11.81,53.16-16.33c15.35-3.87,31.09-7.24,46.82-8.22
		c14.05-0.87,28.29-1.17,42.51-0.84C173.73,598.09,193.4,603.13,213.69,608.93z M681.76,655.76c11.05-22.59,21.33-44.81,32.69-66.45
		c11.42-21.77,28.49-39.45,45.01-57.96c-7.29-0.23-14.04,0.18-20.62,1.47c-15.65,3.06-31.35,5.25-47.33,5.24
		c-3.32,0-6.64,0.36-9.96,0.44c-18.26,0.44-36.53,1.46-54.78,1.08c-15.53-0.33-31.02-2.36-46.53-3.53
		c-10.91-0.82-21.83-1.41-32.75-2.17c-18.17-1.26-36.33-3.35-54.52-3.64c-18.9-0.3-37.88,0.5-56.73,2
		c-13.54,1.08-26.77,4.61-38.95,11.16c-3.64,1.96-7.19,4.08-7.17,8.75c0.06,11.89-1.87,24.04,4.46,35.18
		c2.45,4.31,4.41,8.89,6.74,13.27c4.42,8.31,4.54,8.56,13.87,5.89c18.58-5.32,37.39-8.18,56.79-8.93
		c8.95-0.35,17.72,0.76,26.59,0.58c7.57-0.16,15.17,1.07,22.75,1.72c26.64,2.29,52.03,10.08,77.28,18.15
		c22.19,7.09,43.24,16.98,63.74,28.06C668.73,649.51,675.34,652.57,681.76,655.76z M375.45,707.6c0.25-3.89,0.58-6.8,0.59-9.72
		c0.05-14.97,0.5-29.97-0.09-44.92c-0.99-25.16-10.11-46.53-31.52-61.25c-17.55-12.07-37.09-14.11-55.93-5.5
		c-24.56,11.23-39.42,31.47-42.23,58.66c-1.91,18.43-1.55,37.11-2.08,55.67c-0.06,2.2,0.63,4.41,1.04,7.05
		C288.56,707.6,331.38,707.6,375.45,707.6z M264.48,465.56c31.65-7.37,62.1-7.76,93.07-0.39c0-7.17,0-13.35,0-19.34
		c-17.35-8.24-76.79-8.13-93.07,0.13C264.48,452.02,264.48,458.22,264.48,465.56z M357.35,528.79c-31.05-7.4-61.72-6.05-92.65,0.08
		c0,7.21,0,13.67,0,20.95c31.11-8.56,61.53-8.12,92.65-0.32C357.35,542.38,357.35,535.93,357.35,528.79z M357.43,487.03
		c-17.17-3.28-33.14-5.45-49.51-5.22c-11.71,0.17-23.03,1.82-34.44,4.04c-9.24,1.8-9.38,1.39-9.41,10.28
		c-0.01,2.9,0.38,5.8,0.62,9.12c16.03-1.12,31.39-3,46.75-3.04c15.26-0.04,30.52,1.78,45.99,2.8
		C357.43,498.58,357.43,493.05,357.43,487.03z"/>
	<path class="st1" d="M237.53,324.15c-3.56-1.58-7.47-2.67-10.64-4.83c-44.33-30.11-92.05-53.26-143.23-69.03
		c-26.3-8.1-52.95-15.05-80.66-16.31c-17.24-0.78-34.64-2.89-51.72-1.48c-20.03,1.65-40.1,5.26-59.61,10.16
		c-43.02,10.8-82.12,30.3-117.8,56.69c-18.28,13.52-34.91,28.95-49.76,45.96c-19.2,21.98-37.63,44.66-51.34,70.8
		c-8.95,17.05-18.47,33.78-25.86,51.61c-0.74,1.79-3.19,2.87-4.85,4.28c-0.2-3.31-0.58-6.61-0.58-9.92
		c-0.01-190.58,0.07-381.16-0.03-571.74c-0.03-56.28,25.09-98.25,72.25-127.4c21.39-13.22,45.34-18.94,70.51-18.99
		c50.31-0.11,100.62-0.13,150.93-0.14c93.29-0.01,186.58,0.02,279.87,0.06c4.32,0,8.64,0.25,12.97,0.38
		c0.67,21.22,1.32,42.45,2.03,63.67c0.87,26.21-0.53,52.4,1.58,78.69c2.36,29.41-0.09,59.05,2.11,88.63
		c2.31,31.11-0.08,62.37,1.85,93.64c2.33,37.76,0.39,75.7,2.09,113.6c1.66,37.21,0.3,74.56,0.44,111.84
		c0.02,5.25,1.31,10.49,1.49,15.75C239.7,314.82,241.93,320.01,237.53,324.15z"/>
	<path class="st1" d="M978.04,467.99c-1.38-1.17-3.43-2.06-4.04-3.55c-9.65-23.43-22-45.5-35.52-66.77
		c-10.45-16.45-22.64-31.91-35.04-47c-21.88-26.61-48.9-47.66-77.18-66.89c-19.79-13.45-41.31-24.21-64.07-31.81
		c-17.59-5.87-35.41-11.52-53.55-15.11c-25.77-5.1-52.17-6.86-78.33-4.53c-49.86,4.44-97.79,17.33-143.98,36.62
		c-23.67,9.89-45.95,22.47-67.94,35.57c-10.78,6.42-21.43,13.07-32.15,19.62c-3.42-6.31-4.63-13.06-4.22-20.2
		c0.74-13.11,1.6-26.23,1.96-39.36c1.06-39.53-0.9-79.05,1.69-118.63c2.56-39.1-1.03-78.38,2.04-117.61
		c2.31-29.43,0.58-59.06,1.81-88.65c2.33-56.12,1.84-112.35,2.49-168.53c0.1-8.99,0.03-17.98,0.04-26.97
		c2.99-0.13,5.98-0.37,8.96-0.37c144.23-0.01,288.45,0.1,432.68-0.06c28.43-0.03,54.94,6.5,78.56,22.23
		c40.43,26.93,64.53,64.3,65.98,113.54c1.34,45.26,0.56,90.59,0.57,135.89c0.06,145.56,0.07,291.12,0.05,436.67
		C978.84,457.41,978.32,462.7,978.04,467.99z"/>
	<path class="st2" d="M392.03-255.78c-0.01,8.99,0.06,17.98-0.04,26.97c-0.65,56.18-0.16,112.42-2.49,168.53
		c-1.23,29.59,0.5,59.21-1.81,88.65c-3.08,39.23,0.52,78.51-2.04,117.61c-2.59,39.58-0.63,79.1-1.69,118.63
		c-0.35,13.13-1.21,26.24-1.96,39.36c-0.41,7.14,0.8,13.89,4.22,20.2c-5.54,7.4-14.33,5.76-21.78,7.77
		c-17.77,4.81-36.18,4.39-54.27,5.13c-15.06,0.61-30.28-2.2-45.4-3.85c-6.23-0.68-12.42-2.01-18.49-3.6
		c-3.3-0.87-7.57-0.9-8.75-5.45c4.39-4.14,2.16-9.33,2.01-14.07c-0.17-5.26-1.47-10.5-1.49-15.75
		c-0.14-37.29,1.23-74.63-0.44-111.84c-1.69-37.9,0.24-75.84-2.09-113.6c-1.93-31.27,0.46-62.54-1.85-93.64
		c-2.2-29.58,0.25-59.22-2.11-88.63c-2.11-26.29-0.71-52.47-1.58-78.69c-0.7-21.22-1.35-42.45-2.03-63.67
		c3.3-0.14,6.61-0.41,9.91-0.41c48.74-0.03,97.49-0.04,146.23-0.02C386.75-256.18,389.39-255.92,392.03-255.78z"/>
	<path class="st1" d="M33.86,1052.76c13.48-23.67,29.68-45.49,45.68-67.47c11.3-15.52,21.74-31.66,32.61-47.49
		c5.76-8.39,11.6-16.73,18.41-24.96c1.95,9.46,1.27,18.93,1.37,28.33c0.11,10,0.01,19.99,0.01,29.99c0,9.64,0,19.28,0,28.66
		c7.57,2.72,26.54,3.07,38.06,0.64c0-3.26,0-6.81,0-10.37c0.01-42.65,0.1-85.3-0.05-127.95c-0.02-6.64,1.84-11.9,5.87-17.37
		c11.03-14.96,21.2-30.56,31.73-45.89c0.84-1.23,1.83-2.36,4.46-3.09c0,34.13,0,68.27,0,102.4c0,33.96,0,67.92,0,101.64
		c7.56,2.72,28.63,3.07,39.94,0.61c0-85.49,0-171.26,0-257.73c15.01,0,28.78,0,43.79,0c0,86.2,0,171.97,0,258.52
		c13,0,24.78,0,37.87,0c0.73-12.24,0.24-24.46,0.32-36.65c0.09-12.33,0.02-24.66,0.02-36.99c0-12.33,0-24.66,0-36.99
		c0-12,0-23.99,0-35.99c0-12.33,0-24.66,0-36.99s0.01-24.66,0.01-36.99c0-12.29,0-24.58,0-37.35c2.89-0.52,5.07-1.21,7.26-1.24
		c7.99-0.13,16-0.16,23.99,0c6.8,0.13,9.64,2.63,10.57,9.28c0.41,2.95,0.19,5.99,0.19,8.98C376,836.29,376,912.27,376,988.24
		c0,3.97,0,7.93,0,13.32c6.81,0.17,12.96,0.38,19.12,0.45c6.31,0.08,12.62,0.02,18.36,0.02c0.82-0.88,1.05-1.12,1.27-1.36
		c0.22-0.24,0.54-0.47,0.61-0.76c0.24-0.96,0.55-1.95,0.55-2.93c0.03-63.63,0.02-127.26,0.02-192.22c2.33,1.65,4.16,2.36,5.08,3.7
		c11.77,16.89,23.57,33.76,34.92,50.93c1.81,2.74,1.97,6.92,1.98,10.43c0.13,39.99,0.09,79.97,0.09,119.96c0,3.58,0,7.17,0,11.51
		c12.87,0,24.65,0,37.24,0c0.92-10.29,2.34-20.4,2.63-30.55c0.44-15.59,0.12-31.2,0.12-49.09c3.95,4.71,6.84,7.64,9.13,10.98
		c17.81,25.99,35.45,52.09,53.26,78.08c8.24,12.02,16.81,23.83,25.1,35.82c1.26,1.82,1.81,4.14,2.69,6.23
		c-3.63,0.25-7.26,0.72-10.89,0.72c-176.84,0.04-353.69,0.05-530.53,0.02C42.45,1053.48,38.15,1053.01,33.86,1052.76z"/>
	<path class="st3" d="M244.37,404.76c-5.35,4.48-9.36,7.9-13.43,11.25c-34.55,28.41-73.94,45.94-118.33,51.52
		c-39.45,4.96-77.93,0.74-113.96-16.76c-33.98-16.51-60.55-41.48-75.84-76.4c-5.63-12.86-7.46-27.48-10.29-41.45
		c-1.29-6.38,0.75-8.69,7.9-10.41c10.01-2.41,20.11-4.76,30.31-6.05c25.87-3.28,51.66-2.5,77.6,0.96
		c48.04,6.41,93.03,21.75,136.8,42.06c23.96,11.12,46.64,24.26,69.13,37.88C237.33,399.21,240.07,401.59,244.37,404.76z"/>
	<path class="st3" d="M376.38,404.55c10.69-6.63,19.58-12.36,28.68-17.74c48.12-28.43,98.75-50.85,153.48-63.23
		c30.61-6.92,61.61-11.29,93-9c15.82,1.15,31.57,4.38,47.13,7.67c10.24,2.16,10.82,4.29,9.57,14.62
		c-5.1,42.23-26.51,74.46-60.41,99.18c-26.85,19.58-57.14,29.25-89.94,32.09c-54.85,4.75-104.77-9.04-150.2-39.79
		c-7.99-5.41-15.92-10.91-23.74-16.55C381.64,410.11,379.76,407.82,376.38,404.55z"/>
	<path class="st1" d="M213.69,608.93c-20.28-5.8-39.96-10.84-60.82-11.32c-14.22-0.33-28.45-0.03-42.51,0.84
		c-15.73,0.97-31.47,4.35-46.82,8.22c-17.95,4.53-35.69,10.15-53.16,16.33c-19.65,6.96-38.69,15.51-56.8,25.98
		c-4.54,2.62-9.34,4.79-15.03,7.68c-19.08-48.26-40.1-94.26-80.87-128.17c5.33,0.81,10.69,1.48,15.99,2.45
		c20.52,3.77,41.05,7.11,62.03,7.2c13.91,0.07,27.82,1.75,41.72,1.7c16.57-0.06,33.18-0.74,49.7-2.03
		c17.78-1.38,35.44-4.64,53.23-5.52c28.52-1.42,57.13-2.53,85.66-1.88c17.05,0.39,34.42,2.28,50.49,9.46
		c2.73,1.22,5.48,2.38,8.22,3.55c5.17,2.21,7.11,5.97,7.39,11.72C233.08,574.73,229.27,588.11,213.69,608.93z"/>
	<path class="st1" d="M681.76,655.76c-6.41-3.19-13.03-6.25-19.43-9.71c-20.5-11.07-41.55-20.97-63.74-28.06
		c-25.25-8.07-50.64-15.85-77.28-18.15c-7.58-0.65-15.18-1.88-22.75-1.72c-8.87,0.18-17.64-0.93-26.59-0.58
		c-19.39,0.75-38.2,3.61-56.79,8.93c-9.33,2.67-9.45,2.43-13.87-5.89c-2.33-4.38-4.29-8.96-6.74-13.27
		c-6.33-11.14-4.4-23.29-4.46-35.18c-0.02-4.67,3.52-6.79,7.17-8.75c12.18-6.54,25.41-10.08,38.95-11.16
		c18.85-1.5,37.83-2.3,56.73-2c18.19,0.29,36.34,2.38,54.52,3.64c10.91,0.76,21.84,1.35,32.75,2.17c15.52,1.16,31.01,3.2,46.53,3.53
		c18.24,0.39,36.52-0.63,54.78-1.08c3.32-0.08,6.64-0.44,9.96-0.44c15.98,0.02,31.68-2.18,47.33-5.24
		c6.58-1.29,13.34-1.69,20.62-1.47c-16.52,18.52-33.59,36.19-45.01,57.96C703.09,610.96,692.81,633.18,681.76,655.76z"/>
	<path class="st2" d="M375.45,707.6c-44.07,0-86.89,0-130.22,0c-0.41-2.64-1.1-4.86-1.04-7.05c0.53-18.57,0.18-37.24,2.08-55.67
		c2.81-27.19,17.67-47.43,42.23-58.66c18.84-8.61,38.38-6.57,55.93,5.5c21.41,14.72,30.52,36.09,31.52,61.25
		c0.59,14.95,0.14,29.94,0.09,44.92C376.03,700.8,375.7,703.71,375.45,707.6z"/>
	<path class="st1" d="M264.48,465.56c0-7.34,0-13.54,0-19.6c16.28-8.26,75.72-8.37,93.07-0.13c0,5.99,0,12.17,0,19.34
		C326.58,457.8,296.14,458.19,264.48,465.56z"/>
	<path class="st1" d="M357.35,528.79c0,7.14,0,13.59,0,20.71c-31.11-7.8-61.54-8.24-92.65,0.32c0-7.28,0-13.74,0-20.95
		C295.64,522.75,326.3,521.39,357.35,528.79z"/>
	<path class="st1" d="M357.43,487.03c0,6.02,0,11.55,0,17.99c-15.47-1.02-30.73-2.84-45.99-2.8c-15.37,0.04-30.73,1.92-46.75,3.04
		c-0.24-3.32-0.63-6.22-0.62-9.12c0.03-8.9,0.17-8.48,9.41-10.28c11.41-2.22,22.73-3.87,34.44-4.04
		C324.29,481.58,340.27,483.75,357.43,487.03z"/>
</g>
</svg>
