<svg id="Layer_1" data-name="Layer 1" xmlns="http://www.w3.org/2000/svg" viewBox="0 0 901.77 739.53"><defs><style>.cls-1{fill:#fff;}.cls-2{fill:#fa120d;}</style></defs><title>vadarr-icon-white-red</title><path class="cls-1" d="M33.86,1052.76c13.48-23.67,29.68-45.49,45.68-67.46,11.3-15.52,21.75-31.66,32.61-47.5,5.76-8.39,11.6-16.72,18.41-25,1.95,9.46,1.27,18.93,1.37,28.33.11,10,0,20,0,30,0,9.64,0,19.28,0,28.66,7.57,2.72,26.54,3.07,38.06.64V990.09c0-42.65.1-85.3,0-128a27.33,27.33,0,0,1,5.86-17.37c11-15,21.2-30.56,31.73-45.89a7,7,0,0,1,4.46-3.09v204c7.57,2.72,28.63,3.07,40,.61V742.71h43.79v258.53h37.87c.73-12.25.24-24.46.33-36.65s0-24.66,0-37,0-24.65,0-37v-73q0-18.5,0-37V743.3c2.88-.51,5.07-1.21,7.26-1.24,8-.13,16-.16,24,0,6.79.13,9.64,2.62,10.57,9.28a65.48,65.48,0,0,1,.19,9q0,114,0,227.92c0,4,0,7.93,0,13.32,6.8.17,13,.38,19.11.45,6.31.08,12.62,0,18.36,0l1.27-1.36c.22-.25.54-.47.61-.76a12.41,12.41,0,0,0,.55-2.93c0-63.62,0-127.25,0-192.21,2.33,1.65,4.16,2.36,5.09,3.69,11.77,16.89,23.57,33.76,34.92,50.93,1.8,2.74,2,6.91,2,10.43.13,40,.08,80,.08,120v11.5h37.24c.93-10.29,2.34-20.4,2.63-30.55.45-15.59.12-31.2.12-49.09,3.95,4.71,6.84,7.64,9.13,11,17.81,26,35.45,52.09,53.26,78.08,8.24,12,16.8,23.82,25.09,35.82,1.26,1.82,1.82,4.14,2.7,6.22-3.63.25-7.26.72-10.89.72q-265.26.06-530.53,0C42.45,1053.48,38.15,1053,33.86,1052.76Z" transform="translate(142.31 -313.97)"/><path class="cls-2" d="M244.37,404.76c-5.35,4.48-9.36,7.9-13.43,11.25C196.39,444.42,157,462,112.61,467.53c-39.45,5-77.93.74-114-16.76-34-16.52-60.54-41.48-75.83-76.4-5.64-12.87-7.46-27.48-10.29-41.45-1.29-6.38.75-8.69,7.9-10.41a280.64,280.64,0,0,1,30.31-6.05c25.87-3.28,51.66-2.51,77.6,1,48,6.41,93,21.75,136.8,42.06,24,11.12,46.64,24.26,69.13,37.88C237.33,399.21,240.07,401.59,244.37,404.76Z" transform="translate(142.31 -313.97)"/><path class="cls-2" d="M376.38,404.55c10.69-6.62,19.58-12.36,28.69-17.74,48.12-28.43,98.75-50.84,153.47-63.22,30.61-6.93,61.61-11.29,93-9,15.83,1.15,31.57,4.39,47.14,7.67,10.24,2.16,10.82,4.29,9.57,14.62-5.11,42.23-26.51,74.46-60.41,99.18C621,455.63,590.7,465.3,557.9,468.14c-54.85,4.74-104.77-9-150.2-39.8q-12-8.11-23.74-16.55C381.64,410.11,379.76,407.82,376.38,404.55Z" transform="translate(142.31 -313.97)"/><path class="cls-1" d="M213.69,608.93c-20.29-5.8-40-10.84-60.82-11.32-14.23-.33-28.46,0-42.51.83-15.73,1-31.47,4.35-46.82,8.22C45.59,611.19,27.85,616.81,10.39,623a339.7,339.7,0,0,0-56.8,26c-4.54,2.62-9.34,4.79-15,7.68-19.08-48.27-40.1-94.27-80.87-128.17,5.33.81,10.69,1.48,16,2.45,20.52,3.77,41.05,7.11,62,7.2,13.91.07,27.82,1.76,41.72,1.7,16.57-.06,33.18-.74,49.7-2,17.78-1.38,35.44-4.64,53.24-5.52,28.52-1.42,57.12-2.53,85.65-1.88,17,.39,34.42,2.28,50.49,9.46,2.73,1.21,5.48,2.38,8.22,3.55,5.17,2.21,7.11,6,7.39,11.72C233.08,574.73,229.27,588.11,213.69,608.93Z" transform="translate(142.31 -313.97)"/><path class="cls-1" d="M681.76,655.76c-6.42-3.19-13-6.25-19.43-9.71-20.49-11.07-41.55-21-63.74-28-25.25-8.07-50.64-15.86-77.28-18.15-7.58-.65-15.18-1.88-22.75-1.72-8.87.18-17.64-.93-26.59-.58a238.18,238.18,0,0,0-56.78,8.92c-9.33,2.68-9.45,2.43-13.87-5.88-2.33-4.38-4.29-9-6.74-13.27-6.33-11.14-4.4-23.29-4.46-35.18,0-4.67,3.52-6.79,7.17-8.75a98.36,98.36,0,0,1,38.95-11.16c18.85-1.5,37.83-2.3,56.73-2,18.19.29,36.34,2.38,54.52,3.64,10.91.75,21.84,1.34,32.74,2.16,15.52,1.17,31,3.2,46.54,3.53,18.24.39,36.52-.63,54.78-1.07,3.32-.08,6.64-.45,10-.44,16,0,31.68-2.18,47.33-5.24a91.77,91.77,0,0,1,20.62-1.46c-16.52,18.51-33.59,36.19-45,58S692.81,633.18,681.76,655.76Z" transform="translate(142.31 -313.97)"/><path class="cls-1" d="M375.45,707.6H245.23c-.41-2.64-1.11-4.86-1-7.05.53-18.57.17-37.24,2.08-55.68,2.81-27.18,17.67-47.43,42.23-58.66,18.85-8.61,38.38-6.56,55.93,5.5C365.84,606.43,375,627.8,376,653c.59,14.95.14,29.95.09,44.92C376,700.8,375.7,703.71,375.45,707.6Z" transform="translate(142.31 -313.97)"/><path class="cls-1" d="M264.48,465.56V446c16.28-8.25,75.72-8.37,93.08-.13v19.34C326.58,457.8,296.14,458.19,264.48,465.56Z" transform="translate(142.31 -313.97)"/><path class="cls-1" d="M357.35,528.79v20.72c-31.11-7.8-61.54-8.24-92.64.32v-21C295.64,522.75,326.3,521.39,357.35,528.79Z" transform="translate(142.31 -313.97)"/><path class="cls-1" d="M357.43,487v18c-15.47-1-30.73-2.84-46-2.8s-30.73,1.91-46.75,3c-.24-3.32-.63-6.22-.62-9.12,0-8.89.17-8.48,9.41-10.28a194.85,194.85,0,0,1,34.44-4C324.29,481.58,340.27,483.75,357.43,487Z" transform="translate(142.31 -313.97)"/></svg>