<?xml version="1.0" encoding="utf-8"?>
<!-- Generator: Adobe Illustrator 24.0.1, SVG Export Plug-In . SVG Version: 6.00 Build 0)  -->
<svg version="1.1" id="Layer_1" xmlns="http://www.w3.org/2000/svg" xmlns:xlink="http://www.w3.org/1999/xlink" x="0px" y="0px"
	 viewBox="0 0 612 792" style="enable-background:new 0 0 612 792;" xml:space="preserve">
<style type="text/css">
	.st0{fill:#FFFFFF;}
</style>
<g>
	<path class="st0" d="M33.86,1052.76c13.48-23.67,29.68-45.49,45.68-67.47c11.3-15.52,21.74-31.66,32.61-47.49
		c5.76-8.39,11.6-16.73,18.41-24.96c1.95,9.46,1.27,18.93,1.37,28.33c0.11,10,0.01,19.99,0.01,29.99c0,9.64,0,19.28,0,28.66
		c7.57,2.72,26.54,3.07,38.06,0.64c0-3.26,0-6.81,0-10.37c0.01-42.65,0.1-85.3-0.05-127.95c-0.02-6.64,1.84-11.9,5.87-17.37
		c11.03-14.96,21.2-30.56,31.73-45.89c0.84-1.23,1.83-2.36,4.46-3.09c0,34.13,0,68.27,0,102.4c0,33.96,0,67.92,0,101.64
		c7.56,2.72,28.63,3.07,39.94,0.61c0-85.49,0-171.26,0-257.73c15.01,0,28.78,0,43.79,0c0,86.2,0,171.97,0,258.52
		c13,0,24.78,0,37.87,0c0.73-12.24,0.24-24.46,0.32-36.65c0.09-12.33,0.02-24.66,0.02-36.99c0-12.33,0-24.66,0-36.99
		c0-12,0-23.99,0-35.99c0-12.33,0-24.66,0-36.99s0.01-24.66,0.01-36.99c0-12.29,0-24.58,0-37.35c2.89-0.52,5.07-1.21,7.26-1.24
		c7.99-0.13,16-0.16,23.99,0c6.8,0.13,9.64,2.63,10.57,9.28c0.41,2.95,0.19,5.99,0.19,8.98C376,836.29,376,912.27,376,988.24
		c0,3.97,0,7.93,0,13.32c6.81,0.17,12.96,0.38,19.12,0.45c6.31,0.08,12.62,0.02,18.36,0.02c0.82-0.88,1.05-1.12,1.27-1.36
		c0.22-0.24,0.54-0.47,0.61-0.76c0.24-0.96,0.55-1.95,0.55-2.93c0.03-63.63,0.02-127.26,0.02-192.22c2.33,1.65,4.16,2.36,5.08,3.7
		c11.77,16.89,23.57,33.76,34.92,50.93c1.81,2.74,1.97,6.92,1.98,10.43c0.13,39.99,0.09,79.97,0.09,119.96c0,3.58,0,7.17,0,11.51
		c12.87,0,24.65,0,37.24,0c0.92-10.29,2.34-20.4,2.63-30.55c0.44-15.59,0.12-31.2,0.12-49.09c3.95,4.71,6.84,7.64,9.13,10.98
		c17.81,25.99,35.45,52.09,53.26,78.08c8.24,12.02,16.81,23.83,25.1,35.82c1.26,1.82,1.81,4.14,2.69,6.23
		c-3.63,0.25-7.26,0.72-10.89,0.72c-176.84,0.04-353.69,0.05-530.53,0.02C42.45,1053.48,38.15,1053.01,33.86,1052.76z"/>
	<path class="st0" d="M244.37,404.76c-5.35,4.48-9.36,7.9-13.43,11.25c-34.55,28.41-73.94,45.94-118.33,51.52
		c-39.45,4.96-77.93,0.74-113.96-16.76c-33.98-16.51-60.55-41.48-75.84-76.4c-5.63-12.86-7.46-27.48-10.29-41.45
		c-1.29-6.38,0.75-8.69,7.9-10.41c10.01-2.41,20.11-4.76,30.31-6.05c25.87-3.28,51.66-2.5,77.6,0.96
		c48.04,6.41,93.03,21.75,136.8,42.06c23.96,11.12,46.64,24.26,69.13,37.88C237.33,399.21,240.07,401.59,244.37,404.76z"/>
	<path class="st0" d="M376.38,404.55c10.69-6.63,19.58-12.36,28.68-17.74c48.12-28.43,98.75-50.85,153.48-63.23
		c30.61-6.92,61.61-11.29,93-9c15.82,1.15,31.57,4.38,47.13,7.67c10.24,2.16,10.82,4.29,9.57,14.62
		c-5.1,42.23-26.51,74.46-60.41,99.18c-26.85,19.58-57.14,29.25-89.94,32.09c-54.85,4.75-104.77-9.04-150.2-39.79
		c-7.99-5.41-15.92-10.91-23.74-16.55C381.64,410.11,379.76,407.82,376.38,404.55z"/>
	<path class="st0" d="M213.69,608.93c-20.28-5.8-39.96-10.84-60.82-11.32c-14.22-0.33-28.45-0.03-42.51,0.84
		c-15.73,0.97-31.47,4.35-46.82,8.22c-17.95,4.53-35.69,10.15-53.16,16.33c-19.65,6.96-38.69,15.51-56.8,25.98
		c-4.54,2.62-9.34,4.79-15.03,7.68c-19.08-48.26-40.1-94.26-80.87-128.17c5.33,0.81,10.69,1.48,15.99,2.45
		c20.52,3.77,41.05,7.11,62.03,7.2c13.91,0.07,27.82,1.75,41.72,1.7c16.57-0.06,33.18-0.74,49.7-2.03
		c17.78-1.38,35.44-4.64,53.23-5.52c28.52-1.42,57.13-2.53,85.66-1.88c17.05,0.39,34.42,2.28,50.49,9.46
		c2.73,1.22,5.48,2.38,8.22,3.55c5.17,2.21,7.11,5.97,7.39,11.72C233.08,574.73,229.27,588.11,213.69,608.93z"/>
	<path class="st0" d="M681.76,655.76c-6.41-3.19-13.03-6.25-19.43-9.71c-20.5-11.07-41.55-20.97-63.74-28.06
		c-25.25-8.07-50.64-15.85-77.28-18.15c-7.58-0.65-15.18-1.88-22.75-1.72c-8.87,0.18-17.64-0.93-26.59-0.58
		c-19.39,0.75-38.2,3.61-56.79,8.93c-9.33,2.67-9.45,2.43-13.87-5.89c-2.33-4.38-4.29-8.96-6.74-13.27
		c-6.33-11.14-4.4-23.29-4.46-35.18c-0.02-4.67,3.52-6.79,7.17-8.75c12.18-6.54,25.41-10.08,38.95-11.16
		c18.85-1.5,37.83-2.3,56.73-2c18.19,0.29,36.34,2.38,54.52,3.64c10.91,0.76,21.84,1.35,32.75,2.17c15.52,1.16,31.01,3.2,46.53,3.53
		c18.24,0.39,36.52-0.63,54.78-1.08c3.32-0.08,6.64-0.44,9.96-0.44c15.98,0.02,31.68-2.18,47.33-5.24
		c6.58-1.29,13.34-1.69,20.62-1.47c-16.52,18.52-33.59,36.19-45.01,57.96C703.09,610.96,692.81,633.18,681.76,655.76z"/>
	<path class="st0" d="M375.45,707.6c-44.07,0-86.89,0-130.22,0c-0.41-2.64-1.1-4.86-1.04-7.05c0.53-18.57,0.18-37.24,2.08-55.67
		c2.81-27.19,17.67-47.43,42.23-58.66c18.84-8.61,38.38-6.57,55.93,5.5c21.41,14.72,30.52,36.09,31.52,61.25
		c0.59,14.95,0.14,29.94,0.09,44.92C376.03,700.8,375.7,703.71,375.45,707.6z"/>
	<path class="st0" d="M264.48,465.56c0-7.34,0-13.54,0-19.6c16.28-8.26,75.72-8.37,93.07-0.13c0,5.99,0,12.17,0,19.34
		C326.58,457.8,296.14,458.19,264.48,465.56z"/>
	<path class="st0" d="M357.35,528.79c0,7.14,0,13.59,0,20.71c-31.11-7.8-61.54-8.24-92.65,0.32c0-7.28,0-13.74,0-20.95
		C295.64,522.75,326.3,521.39,357.35,528.79z"/>
	<path class="st0" d="M357.43,487.03c0,6.02,0,11.55,0,17.99c-15.47-1.02-30.73-2.84-45.99-2.8c-15.37,0.04-30.73,1.92-46.75,3.04
		c-0.24-3.32-0.63-6.22-0.62-9.12c0.03-8.9,0.17-8.48,9.41-10.28c11.41-2.22,22.73-3.87,34.44-4.04
		C324.29,481.58,340.27,483.75,357.43,487.03z"/>
</g>
</svg>
